<svg xmlns="http://www.w3.org/2000/svg" xmlns:xlink="http://www.w3.org/1999/xlink" viewBox="0 0 150 150"><defs><style>.cls-1,.cls-3,.cls-4{fill:none;}.cls-2{clip-path:url(#clip-path);}.cls-3,.cls-4{stroke:#fff;stroke-width:3px;}.cls-3{stroke-miterlimit:10;}.cls-4{stroke-linecap:round;stroke-linejoin:round;}.cls-5{fill:#fff;}</style><clipPath id="clip-path" transform="translate(7.5 17.18)"><ellipse class="cls-1" cx="62.94" cy="63.41" rx="61.56" ry="63.41"/></clipPath></defs><g id="Capa_2" data-name="Capa 2"><g id="Capa_1-2" data-name="Capa 1"><g class="cls-2"><image width="3150" height="3150" transform="translate(0 0) scale(0.05)" xlink:href="../logo%202.png"/></g><path class="cls-3" d="M83.33,4.65A51.45,51.45,0,0,0,57.91,2.13C41.73,4.45,26.27,12.38,16,24.67A61.42,61.42,0,0,0,1.53,65.47c.51,17,8.6,32.05,20.75,44,.92.9,5.5,5.79,6.9,3.86a4.14,4.14,0,0,0,.51-1.92c.33-3.12-.5-6.17-.68-9.27a65.59,65.59,0,0,1,6.06-30C43.76,53.4,62.47,40.77,81.73,32c4.61-2.09,9.45-4.12,12.9-7.74a9.88,9.88,0,0,0,3-5.67c.4-4.11-3-7.66-6.51-10A40.36,40.36,0,0,0,83.33,4.65Z" transform="translate(7.5 17.18)"/><path class="cls-4" d="M54.77,24.9c.59,8.35,12.78,8.92,19.83,9.13" transform="translate(7.5 17.18)"/><circle class="cls-5" cx="81.22" cy="30.96" r="1.5"/><path class="cls-3" d="M58.44,32.61C82.5,36.82,82.5,27.82,55,46c-5.48,3.62-10.64,6.19-13.38,3.44s-1.2-8.73,3.44-13.37S54.62,31.94,58.44,32.61Z" transform="translate(7.5 17.18)"/><path class="cls-3" d="M45.07,125.19a47.19,47.19,0,0,0,24.45,3c15.64-2.06,30.68-9.86,40.79-22.17a64.57,64.57,0,0,0,14.63-41.24c-.2-17.3-7.75-32.74-19.26-45.14-.87-.94-5.2-6-6.59-4a4.49,4.49,0,0,0-.52,1.94c-.38,3.17.37,6.28.5,9.44a69.84,69.84,0,0,1-6.35,30.44c-8.69,18.9-26.94,31.41-45.65,40-4.49,2-9.18,4-12.57,7.64a10.27,10.27,0,0,0-2.94,5.71c-.45,4.18,2.74,7.84,6.11,10.29A37.94,37.94,0,0,0,45.07,125.19Z" transform="translate(7.5 17.18)"/><path class="cls-4" d="M72,105.21c-.6-8.35-12.78-8.92-19.83-9.13" transform="translate(7.5 17.18)"/><circle class="cls-5" cx="60.54" cy="133.5" r="1.5"/><path class="cls-3" d="M68.32,97.5c-24.06-4.21-24.06,4.79,3.44-13.38,5.48-3.62,10.64-6.19,13.38-3.44s1.2,8.73-3.44,13.37S72.14,98.17,68.32,97.5Z" transform="translate(7.5 17.18)"/></g></g></svg>