<svg xmlns="http://www.w3.org/2000/svg" xmlns:xlink="http://www.w3.org/1999/xlink" viewBox="0 0 155.06 153.76"><defs><style>.cls-1,.cls-2,.cls-6{fill:none;}.cls-2,.cls-6{stroke:#fff;stroke-width:3px;}.cls-2{stroke-miterlimit:10;}.cls-3{clip-path:url(#clip-path);}.cls-4{clip-path:url(#clip-path-2);}.cls-5{clip-path:url(#clip-path-3);}.cls-6{stroke-linecap:round;stroke-linejoin:round;}.cls-7{fill:#fff;}</style><clipPath id="clip-path" transform="translate(18.15 7.5)"><ellipse class="cls-1" cx="63.83" cy="64.09" rx="61.56" ry="63.41"/></clipPath><clipPath id="clip-path-2" transform="translate(18.15 7.5)"><circle class="cls-1" cx="62.5" cy="66.05" r="62.5"/></clipPath><clipPath id="clip-path-3" transform="translate(18.15 7.5)"><ellipse class="cls-2" cx="65.07" cy="66.23" rx="62.68" ry="64.73"/></clipPath><image id="image" width="3150" height="3150" xlink:href="../Water%20Drops.png"/></defs><g id="Capa_2" data-name="Capa 2"><g id="Capa_1-2" data-name="Capa 1"><g class="cls-3"><use transform="translate(2.55) scale(0.05)" xlink:href="#image"/></g><g class="cls-4"><use transform="translate(0 2.99) scale(0.05 0.05)" xlink:href="#image"/></g><g class="cls-5"><use transform="translate(2.34 0.65) scale(0.05 0.05)" xlink:href="#image"/></g><ellipse class="cls-2" cx="83.22" cy="73.73" rx="62.68" ry="64.73"/><path class="cls-2" d="M84.22,5.33A51.41,51.41,0,0,0,58.81,2.81C42.62,5.12,27.16,13.06,16.89,25.35A61.43,61.43,0,0,0,2.42,66.15c.51,17,8.61,32.05,20.75,44,.92.91,5.5,5.79,6.91,3.86a4.39,4.39,0,0,0,.51-1.92c.33-3.12-.51-6.16-.68-9.26a65.46,65.46,0,0,1,6.05-30c8.7-18.73,27.4-31.37,46.66-40.11,4.62-2.1,9.45-4.12,12.9-7.74a9.82,9.82,0,0,0,3-5.67c.41-4.12-3-7.66-6.51-10A39.24,39.24,0,0,0,84.22,5.33Z" transform="translate(18.15 7.5)"/><path class="cls-6" d="M55.66,25.58c.6,8.35,12.78,8.92,19.83,9.13" transform="translate(18.15 7.5)"/><circle class="cls-7" cx="92.77" cy="21.96" r="1.5"/><ellipse class="cls-2" cx="50.92" cy="41.7" rx="11.89" ry="7.03" transform="translate(3.58 55.72) rotate(-45)"/><path class="cls-2" d="M46,125.87a47.22,47.22,0,0,0,24.46,3c15.64-2.07,30.67-9.86,40.78-22.18a64.48,64.48,0,0,0,14.64-41.23c-.21-17.31-7.76-32.74-19.26-45.14-.88-.94-5.21-6-6.6-4.06a4.53,4.53,0,0,0-.52,1.95c-.37,3.17.38,6.28.5,9.43A69.74,69.74,0,0,1,93.61,58.1C84.92,77,66.68,89.51,48,98.06c-4.48,2-9.18,4-12.57,7.64a10.22,10.22,0,0,0-2.93,5.72c-.46,4.18,2.74,7.84,6.11,10.28A37.4,37.4,0,0,0,46,125.87Z" transform="translate(18.15 7.5)"/><path class="cls-6" d="M73.71,104.25c-.6-8.35-12.78-8.92-19.83-9.13" transform="translate(18.15 7.5)"/><circle class="cls-7" cx="71.78" cy="123.99" r="1.5"/><ellipse class="cls-2" cx="78.45" cy="88.12" rx="11.89" ry="7.03" transform="translate(-21.18 88.78) rotate(-45)"/></g></g></svg>