<svg height="511pt" viewBox="1 -39 511.99928 511" width="511pt" xmlns="http://www.w3.org/2000/svg"><path d="m468.609375.5h-347.117187c-23.953126.027344-43.363282 19.4375-43.390626 43.390625v104.136719h17.355469v-60.746094h399.1875v303.726562c0 14.378907-11.65625 26.035157-26.035156 26.035157h-347.117187c-14.378907 0-26.035157-11.65625-26.035157-26.035157v-69.421874h-17.355469v69.421874c.027344 23.953126 19.4375 43.363282 43.390626 43.390626h347.117187c23.953125-.027344 43.363281-19.4375 43.390625-43.390626v-347.117187c-.027344-23.953125-19.4375-43.363281-43.390625-43.390625zm-373.152344 69.421875v-26.03125c0-14.378906 11.65625-26.035156 26.035157-26.035156h347.117187c14.378906 0 26.035156 11.65625 26.035156 26.035156v26.03125zm0 0"/><path d="m121.492188 35.210938h17.355468v17.355468h-17.355468zm0 0"/><path d="m156.203125 35.210938h17.355469v17.355468h-17.355469zm0 0"/><path d="m190.914062 35.210938h17.359376v17.355468h-17.359376zm0 0"/><path d="m442.578125 304.230469c9.582031 0 17.355469-7.773438 17.355469-17.359375v-112.8125c0-.234375-.113282-.433594-.132813-.667969-.015625-.582031-.089843-1.164063-.214843-1.734375-.050782-.183594-.183594-.332031-.242188-.511719-.144531-.363281-.3125-.714843-.503906-1.050781-.304688-.585938-.675782-1.132812-1.101563-1.632812-.242187-.285157-.503906-.554688-.78125-.808594-.53125-.449219-1.113281-.835938-1.738281-1.144532-.277344-.179687-.566406-.339843-.867188-.476562-.984374-.40625-2.03125-.625-3.097656-.648438h-190.914062c-1.066406.015626-2.117188.226563-3.109375.625-.296875.132813-.589844.289063-.867188.46875-.625.3125-1.207031.703126-1.734375 1.160157-.277344.253906-.519531.511719-.773437.789062-.429688.507813-.796875 1.058594-1.101563 1.648438-.1875.332031-.355468.679687-.492187 1.035156-.070313.191406-.199219.328125-.253907.519531-.136718.585938-.207031 1.179688-.214843 1.78125 0 .222656-.132813.414063-.132813.648438v112.8125c0 9.585937 7.773438 17.359375 17.359375 17.359375zm-173.5625-114.359375 54.125 34.441406-54.125 44.257812zm69.546875 44.257812 12.574219 8.007813c2.84375 1.8125 6.476562 1.8125 9.320312 0l12.574219-8.007813 64.519531 52.746094h-163.507812zm104.015625 34.449219-54.136719-44.257813 54.136719-34.449218zm-21.125-85.839844-65.65625 41.773438-65.65625-41.773438zm0 0"/><path d="m112.8125 165.382812h121.492188v17.355469h-121.492188zm0 0"/><path d="m60.746094 165.382812h34.710937v17.355469h-34.710937zm0 0"/><path d="m164.882812 226.125h69.421876v17.359375h-69.421876zm0 0"/><path d="m130.167969 226.125h17.359375v17.359375h-17.359375zm0 0"/><path d="m78.101562 226.125h34.710938v17.359375h-34.710938zm0 0"/><path d="m8.679688 226.125h34.710937v17.359375h-34.710937zm0 0"/><path d="m147.523438 286.871094h86.78125v17.359375h-86.78125zm0 0"/><path d="m95.457031 286.871094h34.710938v17.359375h-34.710938zm0 0"/><path d="m60.746094 286.871094h17.355468v17.359375h-17.355468zm0 0"/><path d="m0 286.871094h34.710938v17.359375h-34.710938zm0 0"/><path d="m26.035156 165.382812h17.355469v17.355469h-17.355469zm0 0"/></svg>