<?xml version="1.0" encoding="iso-8859-1"?>
<!-- Generator: Adobe Illustrator 19.0.0, SVG Export Plug-In . SVG Version: 6.00 Build 0)  -->
<svg version="1.1" id="Capa_1" xmlns="http://www.w3.org/2000/svg" xmlns:xlink="http://www.w3.org/1999/xlink" x="0px" y="0px"
	 viewBox="0 0 512 512" style="enable-background:new 0 0 512 512;" xml:space="preserve">
<g>
	<g>
		<path d="M461.233,365.041c26.46-46.045,53.42-109.055,50.538-162.316c0-0.011-0.002-0.021-0.002-0.032
			c-3.304-60.841-42.347-93.507-59.77-105.132V61H497c8.284,0,15-6.716,15-15s-6.716-15-15-15H15C6.716,31,0,37.716,0,46
			s6.716,15,15,15h45v36.561c-17.423,11.625-56.465,44.29-59.77,105.131c0,0.011-0.002,0.021-0.002,0.032
			c-2.879,53.232,24.048,116.219,50.538,162.316C21.272,375.142,0,403.125,0,436v30c0,8.284,6.716,15,15,15
			c24.508,0,46.305-11.818,60-30.052C88.695,469.182,110.492,481,135,481c8.284,0,15-6.716,15-15v-30
			c0-32.875-21.272-60.858-50.767-70.959c26.46-46.045,53.42-109.055,50.538-162.316c0-0.011-0.002-0.021-0.002-0.032
			c-3.304-60.841-42.347-93.507-59.77-105.132V61h151v36.561c-17.423,11.625-56.465,44.291-59.77,105.132
			c0,0.011-0.002,0.021-0.002,0.032c-2.879,53.232,24.048,116.219,50.538,162.316C202.272,375.142,181,403.125,181,436v30
			c0,8.284,6.716,15,15,15c24.508,0,46.305-11.818,60-30.052C269.695,469.182,291.492,481,316,481c8.284,0,15-6.716,15-15v-30
			c0-32.875-21.272-60.858-50.767-70.959c26.46-46.045,53.42-109.055,50.538-162.316c0-0.011-0.002-0.021-0.002-0.032
			c-3.304-60.841-42.347-93.507-59.77-105.132V61h151v36.561c-17.423,11.625-56.465,44.291-59.77,105.132
			c0,0.011-0.002,0.021-0.002,0.032c-2.879,53.232,24.048,116.219,50.538,162.316C383.272,375.142,362,403.125,362,436v30
			c0,8.284,6.716,15,15,15c24.508,0,46.305-11.818,60-30.052C450.695,469.182,472.492,481,497,481c8.284,0,15-6.716,15-15v-30
			C512,403.125,490.728,375.142,461.233,365.041z M60,406c0,19.556-12.539,36.239-30,42.43V436c0-19.556,12.539-36.239,30-42.43V406
			z M120,436v12.43c-17.461-6.191-30-22.874-30-42.43v-12.43C107.461,399.761,120,416.444,120,436z M74.992,346.856
			c-14.579-25.892-37.429-71.942-43.471-115.297C45.06,237.72,59.855,241,75,241c15.143,0,29.936-3.28,43.473-9.438
			C112.42,274.862,89.564,320.948,74.992,346.856z M119.11,196.652C106.347,205.943,90.94,211,75,211
			c-15.948,0-31.364-5.062-44.131-14.363c3.808-30.982,20.705-56.511,44.16-72.985C87.685,132.51,113.979,155.558,119.11,196.652z
			 M241,406c0,19.556-12.539,36.239-30,42.43V436c0-19.556,12.539-36.239,30-42.43V406z M301,436v12.43
			c-17.461-6.191-30-22.874-30-42.43v-12.43C288.461,399.761,301,416.444,301,436z M255.992,346.856
			c-14.579-25.892-37.429-71.942-43.471-115.297C226.06,237.72,240.855,241,256,241c15.143,0,29.936-3.28,43.473-9.438
			C293.42,274.862,270.564,320.948,255.992,346.856z M300.11,196.652C287.347,205.943,271.94,211,256,211
			c-15.948,0-31.364-5.062-44.131-14.363c3.808-30.982,20.705-56.511,44.16-72.985C268.685,132.51,294.979,155.558,300.11,196.652z
			 M437.029,123.652c12.656,8.858,38.95,31.906,44.081,73C468.347,205.943,452.94,211,437,211c-15.948,0-31.364-5.062-44.131-14.363
			C396.677,165.655,413.574,140.126,437.029,123.652z M422,406c0,19.556-12.539,36.239-30,42.43V436
			c0-19.556,12.539-36.239,30-42.43V406z M436.992,346.856c-14.579-25.892-37.429-71.942-43.471-115.297
			C407.06,237.72,421.855,241,437,241c15.143,0,29.936-3.28,43.473-9.438C474.42,274.862,451.564,320.948,436.992,346.856z
			 M482,448.43c-17.461-6.191-30-22.874-30-42.43v-12.43c17.461,6.191,30,22.874,30,42.43V448.43z"/>
	</g>
</g>
<g>
</g>
<g>
</g>
<g>
</g>
<g>
</g>
<g>
</g>
<g>
</g>
<g>
</g>
<g>
</g>
<g>
</g>
<g>
</g>
<g>
</g>
<g>
</g>
<g>
</g>
<g>
</g>
<g>
</g>
</svg>
