<?xml version="1.0" encoding="iso-8859-1"?>
<!-- Generator: Adobe Illustrator 19.0.0, SVG Export Plug-In . SVG Version: 6.00 Build 0)  -->
<svg version="1.1" id="Capa_1" xmlns="http://www.w3.org/2000/svg" xmlns:xlink="http://www.w3.org/1999/xlink" x="0px" y="0px"
	 viewBox="0 0 512.001 512.001" style="enable-background:new 0 0 512.001 512.001;" xml:space="preserve">
<g>
	<g>
		<path d="M216.587,128.478c-17.163-15.022-38.611-25.865-62.514-30.321l-16.576-18.773c-3.654-4.14-9.973-4.531-14.115-0.879
			c-4.14,3.655-4.534,9.975-0.878,14.115l3.009,3.407c-27.32,0.932-53.62,10.34-75.288,26.883l-33.64-29.434
			c-2.953-2.583-7.143-3.201-10.717-1.581C2.295,93.516,0,97.077,0,101.001v70c0,3.924,2.295,7.485,5.868,9.106
			c3.588,1.628,7.778,0.992,10.717-1.581l33.643-29.438c21.865,16.656,48.477,25.962,75.687,26.855l-2.986,2.986
			c-3.905,3.905-3.905,10.237,0,14.143c3.906,3.905,10.237,3.905,14.143,0l19.798-19.798c0.178-0.037,0.357-0.07,0.535-0.107
			c0.123-0.023,0.244-0.05,0.366-0.077c21.714-4.669,42.05-14.889,58.816-29.564c2.169-1.898,3.414-4.642,3.414-7.524
			C220.001,133.12,218.757,130.376,216.587,128.478z M20,148.963v-25.924l14.814,12.962L20,148.963z M142.366,155.356
			c-26.82,2.957-54.036-3.97-76.158-19.362c18.63-13.002,40.871-20.053,63.792-20.053c4.128,0,8.264,0.241,12.369,0.699
			c-1.57,6.294-2.369,12.769-2.369,19.361C140,142.592,140.798,149.064,142.366,155.356z M161.996,151.368
			c-1.32-4.983-1.996-10.123-1.996-15.367s0.676-10.384,1.996-15.367c11.329,3.392,22.085,8.589,31.801,15.367
			C184.082,142.779,173.327,147.975,161.996,151.368z"/>
	</g>
</g>
<g>
	<g>
		<path d="M422.587,248.476c-17.079-14.947-38.493-25.838-62.513-30.32l-16.576-18.773c-3.657-4.141-9.976-4.531-14.115-0.879
			c-4.141,3.655-4.533,9.975-0.879,14.115l3.009,3.407c-27.32,0.932-53.62,10.34-75.288,26.883l-33.638-29.434
			c-2.953-2.583-7.142-3.202-10.717-1.581c-3.575,1.622-5.87,5.183-5.87,9.107v70c0,3.924,2.295,7.485,5.868,9.106
			c3.588,1.628,7.778,0.992,10.717-1.581l33.643-29.438c21.864,16.657,48.477,25.962,75.687,26.855l-2.986,2.986
			c-3.905,3.905-3.905,10.237,0,14.143c3.907,3.905,10.236,3.904,14.143,0l19.798-19.798c0.179-0.037,0.359-0.07,0.537-0.108
			c0.12-0.022,0.239-0.049,0.358-0.075c21.715-4.668,42.053-14.889,58.822-29.566c2.17-1.898,3.414-4.642,3.414-7.524
			S424.757,250.375,422.587,248.476z M226,268.963v-25.924l14.814,12.962L226,268.963z M348.366,275.356
			c-26.819,2.957-54.037-3.97-76.158-19.362c18.631-13.002,40.871-20.053,63.792-20.053c4.129,0,8.265,0.241,12.37,0.699
			c-1.57,6.295-2.37,12.769-2.37,19.361C346,262.591,346.798,269.064,348.366,275.356z M367.997,271.367
			c-1.321-4.983-1.997-10.123-1.997-15.366s0.676-10.384,1.997-15.367c11.329,3.392,22.085,8.589,31.801,15.367
			C390.082,262.778,379.327,267.975,367.997,271.367z"/>
	</g>
</g>
<g>
	<g>
		<path d="M488.586,88.476c-17.079-14.947-38.493-25.838-62.513-30.32l-16.576-18.773c-3.657-4.142-9.976-4.532-14.115-0.879
			c-4.141,3.655-4.533,9.975-0.879,14.115l3.009,3.407c-27.32,0.932-53.62,10.34-75.288,26.883l-33.639-29.433
			c-2.952-2.583-7.143-3.201-10.717-1.581c-3.573,1.621-5.868,5.182-5.868,9.106v70c0,3.924,2.295,7.485,5.868,9.106
			c3.573,1.622,7.764,1.002,10.717-1.581l33.643-29.437c21.864,16.656,48.477,25.961,75.687,26.854l-2.986,2.986
			c-3.905,3.905-3.905,10.237,0,14.143c3.907,3.905,10.236,3.904,14.143,0l19.798-19.798c0.179-0.037,0.359-0.07,0.537-0.108
			c0.12-0.022,0.239-0.049,0.358-0.075c21.715-4.668,42.053-14.889,58.822-29.566c2.169-1.898,3.413-4.641,3.413-7.524
			S490.756,90.375,488.586,88.476z M292,108.963V83.039l14.814,12.962L292,108.963z M414.366,115.355
			c-26.819,2.956-54.037-3.969-76.158-19.361C356.839,82.992,379.079,75.941,402,75.941c4.129,0,8.265,0.241,12.37,0.699
			C412.8,82.935,412,89.409,412,96.001C412,102.591,412.798,109.063,414.366,115.355z M433.997,111.367
			c-1.321-4.983-1.997-10.123-1.997-15.366s0.676-10.384,1.997-15.367c11.329,3.392,22.085,8.589,31.801,15.367
			C456.082,102.778,445.327,107.975,433.997,111.367z"/>
	</g>
</g>
<g>
	<g>
		<path d="M508.586,408.476c-17.079-14.947-38.493-25.838-62.513-30.32l-16.576-18.773c-3.657-4.142-9.976-4.532-14.115-0.879
			c-4.141,3.655-4.533,9.975-0.879,14.115l3.009,3.407c-27.32,0.932-53.62,10.34-75.288,26.883l-33.638-29.434
			c-2.952-2.583-7.143-3.202-10.717-1.581c-3.574,1.622-5.869,5.183-5.869,9.107v70c0,3.924,2.295,7.485,5.868,9.106
			c3.573,1.622,7.764,1.002,10.717-1.581l33.643-29.438c21.864,16.656,48.477,25.961,75.687,26.854l-2.986,2.986
			c-3.905,3.905-3.905,10.237,0,14.143c3.907,3.905,10.236,3.904,14.143,0l19.798-19.798c0.179-0.037,0.359-0.07,0.537-0.108
			c0.12-0.022,0.239-0.049,0.358-0.075c21.715-4.668,42.053-14.889,58.822-29.566c2.17-1.898,3.414-4.642,3.414-7.524
			C512.001,413.118,510.756,410.375,508.586,408.476z M312,428.963v-25.924l14.814,12.962L312,428.963z M434.366,435.356
			c-26.819,2.956-54.037-3.969-76.158-19.362c18.631-13.002,40.871-20.053,63.792-20.053c4.129,0,8.265,0.241,12.37,0.699
			c-1.57,6.295-2.37,12.769-2.37,19.361C432,422.591,432.798,429.063,434.366,435.356z M453.997,431.367
			c-1.321-4.983-1.997-10.123-1.997-15.366c0-5.243,0.676-10.384,1.997-15.367c11.329,3.392,22.085,8.589,31.801,15.367
			C476.082,422.778,465.327,427.975,453.997,431.367z"/>
	</g>
</g>
<g>
	<g>
		<path d="M216.586,368.477c-17.163-15.022-38.611-25.865-62.514-30.321l-16.576-18.773c-3.654-4.14-9.973-4.532-14.115-0.879
			c-4.14,3.655-4.534,9.975-0.878,14.115l3.009,3.407c-27.32,0.932-53.62,10.34-75.288,26.883l-33.639-29.434
			c-2.953-2.583-7.143-3.202-10.717-1.581C2.295,333.516,0,337.077,0,341.001v70c0,3.924,2.295,7.485,5.868,9.106
			c3.588,1.628,7.778,0.992,10.717-1.581l33.643-29.438c21.865,16.656,48.477,25.962,75.687,26.855l-2.986,2.986
			c-3.905,3.905-3.905,10.237,0,14.143c3.906,3.905,10.237,3.905,14.143,0l19.798-19.798c0.178-0.037,0.357-0.07,0.535-0.107
			c0.123-0.023,0.244-0.05,0.366-0.077c21.714-4.669,42.05-14.889,58.816-29.564c2.169-1.898,3.414-4.642,3.414-7.524
			C220.001,373.12,218.756,370.375,216.586,368.477z M20,388.963v-25.924l14.814,12.962L20,388.963z M142.366,395.356
			c-26.82,2.957-54.036-3.971-76.158-19.362c18.63-13.002,40.871-20.053,63.792-20.053c4.128,0,8.264,0.241,12.369,0.699
			c-1.57,6.294-2.369,12.769-2.369,19.361C140,382.592,140.798,389.064,142.366,395.356z M161.996,391.368
			c-1.32-4.983-1.996-10.123-1.996-15.367c0-5.244,0.676-10.384,1.996-15.367c11.329,3.392,22.085,8.589,31.801,15.367
			C184.082,382.779,173.327,387.975,161.996,391.368z"/>
	</g>
</g>
<g>
</g>
<g>
</g>
<g>
</g>
<g>
</g>
<g>
</g>
<g>
</g>
<g>
</g>
<g>
</g>
<g>
</g>
<g>
</g>
<g>
</g>
<g>
</g>
<g>
</g>
<g>
</g>
<g>
</g>
</svg>
