<svg height="480pt" viewBox="0 0 480 480.06595" width="480pt" xmlns="http://www.w3.org/2000/svg"><path d="m200.046875 160.023438c70.851563 0 135.65625-12.800782 171.042969-33.535157l97.382812 48.734375c2.972656 1.484375 6.546875.976563 8.992188-1.269531 2.441406-2.25 3.238281-5.773437 2.007812-8.855469l-22.488281-56.273437c-5.363281-13.347657-5.363281-28.253907 0-41.601563l22.496094-56.253906c1.199219-3.003906.472656-6.4375-1.84375-8.695312-2.316407-2.2617192-5.765625-2.902344-8.738281-1.625l-104.953126 44.976562c-36.832031-18.570312-97.625-29.601562-163.898437-29.601562-96.957031 0-200 25.234374-200 72 0 46.769531 103.042969 72 200 72zm0-128c64.882813 0 126.089844 11.3125 159.753906 29.511718 2.140625 1.183594 4.710938 1.300782 6.953125.320313l90.695313-38.871094-15.328125 38.328125c-6.898438 17.160156-6.898438 36.320312 0 53.480469l14.664062 36.664062-82.511718-41.265625c-2.53125-1.265625-5.542969-1.101562-7.921876.433594-31.4375 20.289062-96.703124 33.398438-166.304687 33.398438-108.429687 0-184-29.511719-184-56 0-26.488282 75.570313-56 184-56zm0 0"/><path d="m80.046875 104.023438c13.257813 0 24-10.746094 24-24 0-13.253907-10.742187-24-24-24-13.253906 0-24 10.746093-24 24 0 13.253906 10.746094 24 24 24zm0-32c4.421875 0 8 3.582031 8 8 0 4.417968-3.578125 8-8 8-4.417969 0-8-3.582032-8-8 0-4.417969 3.582031-8 8-8zm0 0"/><path d="m120.046875 112.023438c-4.417969 0-8 3.582031-8 8 0 4.417968 3.582031 8 8 8 9.488281.042968 18.097656-5.527344 21.949219-14.199219 3.847656-8.667969 2.203125-18.792969-4.1875-25.800781 6.390625-7.007813 8.035156-17.132813 4.1875-25.800782-3.851563-8.667968-12.460938-14.238281-21.949219-14.199218-4.417969 0-8 3.582031-8 8 0 4.417968 3.582031 8 8 8 4.421875 0 8 3.582031 8 8 0 4.417968-3.578125 8-8 8-4.417969 0-8 3.582031-8 8 0 4.417968 3.582031 8 8 8 4.421875 0 8 3.582031 8 8 0 4.417968-3.578125 8-8 8zm0 0"/><path d="m456.984375 412.824219c-5.363281-13.347657-5.363281-28.253907 0-41.601563l22.496094-56.253906c1.199219-3.003906.472656-6.4375-1.84375-8.695312-2.316407-2.261719-5.765625-2.902344-8.738281-1.625l-104.953126 44.976562c-36.832031-18.570312-97.625-29.601562-163.898437-29.601562-96.957031 0-200 25.234374-200 72 0 46.769531 103.042969 72 200 72 70.851563 0 135.65625-12.800782 171.042969-33.535157l97.382812 48.734375c2.972656 1.484375 6.546875.976563 8.992188-1.269531 2.441406-2.25 3.238281-5.773437 2.007812-8.855469zm-82.710937 1.335937c-2.53125-1.265625-5.542969-1.101562-7.921876.433594-31.4375 20.320312-96.703124 33.429688-166.304687 33.429688-108.429687 0-184-29.511719-184-56 0-26.488282 75.570313-56 184-56 64.882813 0 126.089844 11.3125 159.753906 29.511718 2.140625 1.183594 4.710938 1.300782 6.953125.320313l90.695313-38.871094-15.328125 38.328125c-6.898438 17.160156-6.898438 36.320312 0 53.480469l14.664062 36.664062zm0 0"/><path d="m80.046875 360.023438c-13.253906 0-24 10.746093-24 24 0 13.253906 10.746094 24 24 24 13.257813 0 24-10.746094 24-24 0-13.253907-10.742187-24-24-24zm0 32c-4.417969 0-8-3.582032-8-8 0-4.417969 3.582031-8 8-8 4.421875 0 8 3.582031 8 8 0 4.417968-3.578125 8-8 8zm0 0"/><path d="m120.046875 352.023438c-4.417969 0-8 3.582031-8 8 0 4.417968 3.582031 8 8 8 4.421875 0 8 3.582031 8 8 0 4.417968-3.578125 8-8 8-4.417969 0-8 3.582031-8 8 0 4.417968 3.582031 8 8 8 4.421875 0 8 3.582031 8 8 0 4.417968-3.578125 8-8 8-4.417969 0-8 3.582031-8 8 0 4.417968 3.582031 8 8 8 9.488281.042968 18.097656-5.527344 21.949219-14.199219 3.847656-8.667969 2.203125-18.792969-4.1875-25.800781 6.390625-7.007813 8.035156-17.132813 4.1875-25.800782-3.851563-8.667968-12.460938-14.238281-21.949219-14.199218zm0 0"/><path d="m.625 317.054688c-1.257812 3.089843-.46875 6.632812 1.976562 8.894531 2.449219 2.265625 6.042969 2.773437 9.023438 1.273437l97.382812-48.734375c35.386719 20.734375 100.191407 33.535157 171.039063 33.535157 96.960937 0 200-25.230469 200-72 0-46.765626-103.039063-72-200-72-66.269531 0-127.0625 11.03125-163.894531 29.601562l-104.953125-44.953125c-2.972657-1.277344-6.421875-.636719-8.738281 1.625-2.316407 2.257813-3.042969 5.691406-1.84375 8.695313l22.496093 56.230468c5.363281 13.347656 5.363281 28.253906 0 41.601563zm37.335938-50.261719c6.898437-17.160157 6.898437-36.320313 0-53.480469l-15.3125-38.328125 90.695312 38.871094c2.246094.960937 4.804688.84375 6.953125-.320313 33.664063-18.199218 94.871094-29.511718 159.75-29.511718 108.433594 0 184 29.511718 184 56 0 26.488281-75.566406 56-184 56-69.597656 0-134.863281-13.109376-166.300781-33.398438-2.378906-1.535156-5.390625-1.699219-7.921875-.433594l-82.527344 41.265625zm0 0"/><path d="m400.046875 256.023438c13.257813 0 24-10.746094 24-24 0-13.253907-10.742187-24-24-24-13.253906 0-24 10.746093-24 24 0 13.253906 10.746094 24 24 24zm0-32c4.421875 0 8 3.582031 8 8 0 4.417968-3.578125 8-8 8-4.417969 0-8-3.582032-8-8 0-4.417969 3.582031-8 8-8zm0 0"/><path d="m360.046875 280.023438c4.421875 0 8-3.582032 8-8 0-4.417969-3.578125-8-8-8-4.417969 0-8-3.582032-8-8 0-4.417969 3.582031-8 8-8 4.421875 0 8-3.582032 8-8 0-4.417969-3.578125-8-8-8-4.417969 0-8-3.582032-8-8 0-4.417969 3.582031-8 8-8 4.421875 0 8-3.582032 8-8 0-4.417969-3.578125-8-8-8-9.484375-.039063-18.09375 5.53125-21.945313 14.199218-3.847656 8.667969-2.203124 18.792969 4.1875 25.800782-6.390624 7.007812-8.035156 17.132812-4.1875 25.800781 3.851563 8.671875 12.460938 14.242187 21.945313 14.199219zm0 0"/></svg>